Coordinates
version=1
nRows=19
nColumns=24
inDegrees=yes

Units are S.I. units (second, meters, Newtons, ...)
If the header above contains a line with 'inDegrees', this indicates whether rotational values are in degrees (yes) or radians (no).

endheader
time	pelvis_tilt	pelvis_list	pelvis_rotation	pelvis_tx	pelvis_ty	pelvis_tz	hip_flexion_r	hip_adduction_r	hip_rotation_r	knee_angle_r	ankle_angle_r	subtalar_angle_r	mtp_angle_r	hip_flexion_l	hip_adduction_l	hip_rotation_l	knee_angle_l	ankle_angle_l	subtalar_angle_l	mtp_angle_l	lumbar_extension	lumbar_bending	lumbar_rotation
      1.50000000	      6.15695259	     -0.14397060	     -3.41973499	      0.60040534	      1.03688268	      0.00415722	      5.69983966	     -6.65461049	     -5.72036550	    -68.65885788	     -3.36805412	     -0.00000748	      0.00000000	      6.67812120	      2.29073542	     -3.37077299	    -16.63757381	      2.54333264	     -0.00000172	      0.00000000	    -15.72590201	     -4.16441503	     -1.79039910
      1.51700000	      6.19145368	     -0.48486834	     -2.75426332	      0.59908787	      1.03953049	      0.00171518	      7.91298092	     -6.16369467	     -6.08963782	    -69.60660134	     -1.56010060	     -0.00000759	      0.00000000	      4.96199428	      2.18537977	     -2.59954929	    -15.49158743	      2.97665518	     -0.00000154	      0.00000000	    -15.80979819	     -3.51602546	     -2.63147959
      1.53300000	      6.22615116	     -0.78974434	     -2.18940315	      0.59786649	      1.04185303	     -0.00061106	      9.99944977	     -5.60130241	     -6.26924462	    -69.75579149	     -0.19917764	     -0.00000736	      0.00000000	      3.16237297	      2.07884088	     -1.96457604	    -14.17810852	      3.32845019	     -0.00000148	      0.00000000	    -15.90228391	     -2.96540647	     -3.57826630
      1.55000000	      6.03882200	     -0.88297059	     -1.78911888	      0.59550853	      1.04296370	     -0.00250528	     12.39795231	     -5.21364233	     -6.27691201	    -69.40537042	      0.78965318	     -0.00000660	      0.00000000	      1.82771096	      2.13184128	     -1.55436422	    -13.17503221	      3.73950373	     -0.00000131	      0.00000000	    -15.85378326	     -2.69302976	     -4.08613382
      1.56700000	      6.04921731	     -1.28813297	     -0.98560428	      0.59413779	      1.04438376	     -0.00450204	     14.07195587	     -4.55565411	     -6.81320411	    -67.92569869	      1.38794608	     -0.00000590	      0.00000000	      0.16847323	      1.81412831	     -0.71192886	    -12.04439343	      4.17476892	     -0.00000117	      0.00000000	    -15.93650735	     -2.00957100	     -4.90823177
      1.58300000	      5.97870914	     -1.51577864	     -0.53426937	      0.59212970	      1.04499587	     -0.00596226	     15.82320230	     -4.06530420	     -7.02686642	    -65.89628433	      1.78802247	     -0.00000501	      0.00000000	     -1.27238185	      1.64060847	     -0.23132299	    -11.11740485	      4.67334020	     -0.00000100	      0.00000000	    -15.97919600	     -1.59409391	     -5.45093003
      1.60000000	      5.96618910	     -1.73014543	     -0.26596648	      0.59095833	      1.04539447	     -0.00716234	     17.22154998	     -3.57588912	     -7.11987230	    -63.08275319	      2.06191119	     -0.00000441	      0.00000000	     -2.99645840	      1.46383171	      0.10418044	     -9.84519667	      5.06600462	     -0.00000081	      0.00000000	    -16.03424613	     -1.17292325	     -5.69602356
      1.61700000	      5.86208264	     -1.70249179	      0.10358899	      0.58807140	      1.04497644	     -0.00838675	     18.59614957	     -3.48761072	     -7.45281431	    -59.69601601	      2.31068545	     -0.00000413	      0.00000000	     -4.36244445	      1.51405939	      0.60962588	     -8.85317067	      5.43951311	     -0.00000078	      0.00000000	    -16.21665955	     -1.05614170	     -5.93508538
      1.63300000	      5.51669433	     -1.76438302	      0.23701901	      0.58604036	      1.04357455	     -0.00924896	     19.91873386	     -3.34485559	     -7.84900398	    -55.61523197	      2.52577478	     -0.00000430	      0.00000000	     -5.43548628	      1.48104572	      0.81351166	     -8.08838230	      6.05316903	     -0.00000062	      0.00000000	    -15.89462084	     -0.84363732	     -6.11068166
      1.65000000	      5.34631305	     -1.48844944	      0.19283507	      0.58366277	      1.04195687	     -0.01010689	     20.81683368	     -3.58778007	     -8.24503276	    -50.91329133	      2.70059111	     -0.00000485	      0.00000000	     -6.77228262	      1.83507246	      0.80827404	     -7.12583781	      6.49057729	     -0.00000049	      0.00000000	    -15.87437534	     -0.97999643	     -6.14457206
      1.66700000	      5.32821048	     -1.38138251	      0.26816588	      0.58215523	      1.04035929	     -0.01050954	     21.05554395	     -3.69559985	     -9.18747640	    -45.37552668	      2.65356308	     -0.00000543	      0.00000000	     -8.37177446	      1.94390061	      0.88055299	     -6.06713380	      6.95736775	     -0.00000025	      0.00000000	    -15.99886211	     -0.96565661	     -6.13040633
      1.68300000	      5.11370881	     -0.98167724	      0.18545592	      0.58023611	      1.03758945	     -0.01104908	     21.44177798	     -4.00953208	     -9.97082036	    -39.59213316	      2.44891420	     -0.00000588	      0.00000000	     -9.52050172	      2.40191748	      0.87819611	     -5.49701282	      7.66316838	      0.00000003	      0.00000000	    -15.93795582	     -1.26196363	     -6.18033721
      1.70000000	      4.80385285	     -0.66292553	      0.15486282	      0.57922789	      1.03444355	     -0.01110689	     21.53118592	     -4.06385773	    -10.77825693	    -33.22488563	      2.13227895	     -0.00000584	      0.00000000	    -10.71864881	      2.72506580	      0.94852189	     -4.74068650	      8.33226538	      0.00000028	      0.00000000	    -15.64948828	     -1.48902575	     -6.27005668
      1.71700000	      4.91145106	     -0.15704962	      0.10918767	      0.57783318	      1.03171561	     -0.01095182	     21.01169348	     -4.10434502	    -11.06329118	    -26.59694208	      1.71335849	     -0.00000519	      0.00000000	    -12.29481774	      3.25458585	      1.05945865	     -4.08860504	      8.95604235	      0.00000022	      0.00000000	    -15.94559312	     -1.95995037	     -6.26135573
      1.73300000	      4.74628850	      0.37283305	      0.05016981	      0.57669538	      1.02801826	     -0.01084315	     20.67091548	     -4.04569965	    -10.67415452	    -19.99270209	      1.35413320	     -0.00000415	      0.00000000	    -13.63231384	      3.83433140	      1.20603908	     -3.37940127	      9.61208204	      0.00000009	      0.00000000	    -15.89982426	     -2.39236512	     -6.17559433
      1.75000000	      4.60806676	      0.94981860	      0.02559862	      0.57628915	      1.02412086	     -0.01050112	     20.17162264	     -4.02489174	     -9.63056473	    -13.63282829	      1.11933252	     -0.00000298	      0.00000000	    -14.99304189	      4.42644994	      1.46148219	     -2.78321756	     10.27116076	     -0.00000016	      0.00000000	    -15.73778490	     -2.86520408	     -6.48527538
      1.76700000	      4.58675173	      1.49660788	      0.07423755	      0.57625733	      1.02018502	     -0.00988798	     19.54332224	     -4.07099809	     -8.15639424	     -7.99184884	      1.08942855	     -0.00000200	      0.00000000	    -16.46100418	      4.90777557	      1.84139194	     -2.27545134	     10.90103803	     -0.00000012	      0.00000000	    -15.73120958	     -3.30759246	     -6.70896815
      1.78300000	      4.57586205	      1.92855636	      0.32608165	      0.57671897	      1.01626308	     -0.00949991	     18.95887330	     -4.20594501	     -6.72213334	     -3.45228735	      1.35458914	     -0.00000135	      0.00000000	    -17.97550175	      5.17335685	      2.47214700	     -1.76200703	     11.44525457	     -0.00000004	      0.00000000	    -15.63632470	     -3.53632555	     -7.21154280
      1.80000000	      4.53014700	      2.30139445	      0.49331313	      0.57704809	      1.01255758	     -0.00884484	     18.67536890	     -4.35804834	     -5.32307192	     -0.38123693	      1.69996454	     -0.00000093	      0.00000000	    -19.19346613	      5.36658570	      3.04228184	     -1.75503747	     12.06908660	      0.00000022	      0.00000000	    -15.53694649	     -3.71950703	     -7.55058751
